{
    "asset" : {
        "generator" : "Khronos glTF Blender I/O v1.8.19",
        "version" : "2.0"
    },
    "scene" : 0,
    "scenes" : [
        {
            "name" : "Scene",
            "nodes" : [
                0,
                1,
                2,
                3
            ]
        }
    ],
    "nodes" : [
        {
            "mesh" : 0,
            "name" : "body",
            "scale" : [
                0.009999999776482582,
                0.009999999776482582,
                0.009999999776482582
            ],
            "translation" : [
                0,
                0.12267476320266724,
                0.011172812432050705
            ]
        },
        {
            "mesh" : 1,
            "name" : "Chest",
            "scale" : [
                0.009999999776482582,
                0.009999999776482582,
                0.009999999776482582
            ],
            "translation" : [
                0,
                0.6391416788101196,
                0.09818486869335175
            ]
        },
        {
            "mesh" : 2,
            "name" : "Back",
            "scale" : [
                0.009999999776482582,
                0.009999999776482582,
                0.009999999776482582
            ],
            "translation" : [
                0,
                0.564122200012207,
                -0.06455107778310776
            ]
        },
        {
            "mesh" : 3,
            "name" : "Quadriceps",
            "scale" : [
                0.009999999776482582,
                0.009999999776482582,
                0.009999999776482582
            ],
            "translation" : [
                0,
                0.0008196830749511719,
                0.08297600597143173
            ]
        }
    ],
    "materials" : [
        {
            "doubleSided" : true,
            "name" : "body",
            "pbrMetallicRoughness" : {
                "baseColorFactor" : [
                    0.8227857351303101,
                    0.25015807151794434,
                    0.32314321398735046,
                    1
                ],
                "metallicFactor" : 0
            }
        }
    ],
    "meshes" : [
        {
            "name" : "body_low.008",
            "primitives" : [
                {
                    "attributes" : {
                        "POSITION" : 0,
                        "NORMAL" : 1,
                        "TEXCOORD_0" : 2
                    },
                    "indices" : 3,
                    "material" : 0
                }
            ]
        },
        {
            "name" : "body_low.013",
            "primitives" : [
                {
                    "attributes" : {
                        "POSITION" : 4,
                        "NORMAL" : 5,
                        "TEXCOORD_0" : 6
                    },
                    "indices" : 7,
                    "material" : 0
                }
            ]
        },
        {
            "name" : "body_low.014",
            "primitives" : [
                {
                    "attributes" : {
                        "POSITION" : 8,
                        "NORMAL" : 9,
                        "TEXCOORD_0" : 10
                    },
                    "indices" : 11,
                    "material" : 0
                }
            ]
        },
        {
            "name" : "body_low.015",
            "primitives" : [
                {
                    "attributes" : {
                        "POSITION" : 12,
                        "NORMAL" : 13,
                        "TEXCOORD_0" : 14
                    },
                    "indices" : 15,
                    "material" : 0
                }
            ]
        }
    ],
    "accessors" : [
        {
            "bufferView" : 0,
            "componentType" : 5126,
            "count" : 4973,
            "max" : [
                39.38642501831055,
                91.24201965332031,
                16.87724494934082
            ],
            "min" : [
                -39.38642883300781,
                -88.62953186035156,
                -11.679526329040527
            ],
            "type" : "VEC3"
        },
        {
            "bufferView" : 1,
            "componentType" : 5126,
            "count" : 4973,
            "type" : "VEC3"
        },
        {
            "bufferView" : 2,
            "componentType" : 5126,
            "count" : 4973,
            "type" : "VEC2"
        },
        {
            "bufferView" : 3,
            "componentType" : 5123,
            "count" : 25980,
            "type" : "SCALAR"
        },
        {
            "bufferView" : 4,
            "componentType" : 5126,
            "count" : 188,
            "max" : [
                17.973554611206055,
                14.683151245117188,
                5.5742292404174805
            ],
            "min" : [
                -17.97355842590332,
                -14.693511962890625,
                -9.030645370483398
            ],
            "type" : "VEC3"
        },
        {
            "bufferView" : 5,
            "componentType" : 5126,
            "count" : 188,
            "type" : "VEC3"
        },
        {
            "bufferView" : 6,
            "componentType" : 5126,
            "count" : 188,
            "type" : "VEC2"
        },
        {
            "bufferView" : 7,
            "componentType" : 5123,
            "count" : 984,
            "type" : "SCALAR"
        },
        {
            "bufferView" : 8,
            "componentType" : 5126,
            "count" : 138,
            "max" : [
                17.6517276763916,
                25.391983032226562,
                10.102567672729492
            ],
            "min" : [
                -17.651731491088867,
                -27.129966735839844,
                -4.92413854598999
            ],
            "type" : "VEC3"
        },
        {
            "bufferView" : 9,
            "componentType" : 5126,
            "count" : 138,
            "type" : "VEC3"
        },
        {
            "bufferView" : 10,
            "componentType" : 5126,
            "count" : 138,
            "type" : "VEC2"
        },
        {
            "bufferView" : 11,
            "componentType" : 5123,
            "count" : 612,
            "type" : "SCALAR"
        },
        {
            "bufferView" : 12,
            "componentType" : 5126,
            "count" : 72,
            "max" : [
                19.389564514160156,
                19.759536743164062,
                4.383739471435547
            ],
            "min" : [
                -19.389564514160156,
                -19.84789276123047,
                -7.721038818359375
            ],
            "type" : "VEC3"
        },
        {
            "bufferView" : 13,
            "componentType" : 5126,
            "count" : 72,
            "type" : "VEC3"
        },
        {
            "bufferView" : 14,
            "componentType" : 5126,
            "count" : 72,
            "type" : "VEC2"
        },
        {
            "bufferView" : 15,
            "componentType" : 5123,
            "count" : 300,
            "type" : "SCALAR"
        }
    ],
    "bufferViews" : [
        {
            "buffer" : 0,
            "byteLength" : 59676,
            "byteOffset" : 0
        },
        {
            "buffer" : 0,
            "byteLength" : 59676,
            "byteOffset" : 59676
        },
        {
            "buffer" : 0,
            "byteLength" : 39784,
            "byteOffset" : 119352
        },
        {
            "buffer" : 0,
            "byteLength" : 51960,
            "byteOffset" : 159136
        },
        {
            "buffer" : 0,
            "byteLength" : 2256,
            "byteOffset" : 211096
        },
        {
            "buffer" : 0,
            "byteLength" : 2256,
            "byteOffset" : 213352
        },
        {
            "buffer" : 0,
            "byteLength" : 1504,
            "byteOffset" : 215608
        },
        {
            "buffer" : 0,
            "byteLength" : 1968,
            "byteOffset" : 217112
        },
        {
            "buffer" : 0,
            "byteLength" : 1656,
            "byteOffset" : 219080
        },
        {
            "buffer" : 0,
            "byteLength" : 1656,
            "byteOffset" : 220736
        },
        {
            "buffer" : 0,
            "byteLength" : 1104,
            "byteOffset" : 222392
        },
        {
            "buffer" : 0,
            "byteLength" : 1224,
            "byteOffset" : 223496
        },
        {
            "buffer" : 0,
            "byteLength" : 864,
            "byteOffset" : 224720
        },
        {
            "buffer" : 0,
            "byteLength" : 864,
            "byteOffset" : 225584
        },
        {
            "buffer" : 0,
            "byteLength" : 576,
            "byteOffset" : 226448
        },
        {
            "buffer" : 0,
            "byteLength" : 600,
            "byteOffset" : 227024
        }
    ],
    "buffers" : [
        {
            "byteLength" : 227624,
            "uri" : "data:application/octet-stream;base64,"
        }
    ]
}
